<svg width="25" height="21" viewBox="0 0 25 21" fill="none" xmlns="http://www.w3.org/2000/svg">
<rect x="1" y="2" width="2" height="6" rx="1" fill="white"/>
<path d="M1 3C1 2.44772 1.44772 2 2 2H7C7.55228 2 8 2.44772 8 3C8 3.55228 7.55228 4 7 4H1V3Z" fill="white"/>
<rect x="1" y="13" width="2" height="6" rx="1" fill="white"/>
<rect x="1" y="17" width="7" height="2" rx="1" fill="white"/>
<rect x="21" y="13" width="2" height="6" rx="1" fill="white"/>
<rect x="16" y="17" width="7" height="2" rx="1" fill="white"/>
<rect x="21" y="2" width="2" height="6" rx="1" fill="white"/>
<rect x="16" y="2" width="7" height="2" rx="1" fill="white"/>
</svg>
