<svg width="21" height="21" viewBox="0 0 21 21" fill="none" xmlns="http://www.w3.org/2000/svg">
<path d="M9.31875 16.7213V4.27875C9.31875 3.0975 8.82 2.625 7.56 2.625H4.38375C3.12375 2.625 2.625 3.0975 2.625 4.27875V16.7213C2.625 17.9025 3.12375 18.375 4.38375 18.375H7.56C8.82 18.375 9.31875 17.9025 9.31875 16.7213ZM18.3767 16.7213V4.27875C18.3767 3.0975 17.878 2.625 16.618 2.625H13.4417C12.1905 2.625 11.683 3.0975 11.683 4.27875V16.7213C11.683 17.9025 12.1817 18.375 13.4417 18.375H16.618C17.878 18.375 18.3767 17.9025 18.3767 16.7213Z" fill="white"/>
</svg>
