<svg width="21" height="21" viewBox="0 0 21 21" fill="none" xmlns="http://www.w3.org/2000/svg">
<path d="M15.75 14.6563C15.6281 14.6563 15.5087 14.6223 15.405 14.5582C15.3013 14.4942 15.2175 14.4025 15.163 14.2935C15.1085 14.1845 15.0855 14.0624 15.0964 13.9411C15.1073 13.8197 15.1519 13.7038 15.225 13.6063C15.894 12.7088 16.2553 11.6194 16.2553 10.5C16.2553 9.38065 15.894 8.29121 15.225 7.39375C15.1206 7.25451 15.0757 7.07949 15.1003 6.90719C15.125 6.7349 15.217 6.57943 15.3563 6.475C15.4955 6.37057 15.6705 6.32573 15.8428 6.35035C16.0151 6.37496 16.1706 6.46701 16.275 6.60625C17.99 8.89875 17.99 12.1013 16.275 14.3938C16.1438 14.5688 15.9513 14.6563 15.75 14.6563Z" fill="white"/>
<path d="M17.3495 16.8438C17.2276 16.8438 17.1082 16.8098 17.0045 16.7457C16.9008 16.6817 16.817 16.59 16.7625 16.481C16.708 16.372 16.685 16.25 16.6959 16.1286C16.7068 16.0072 16.7514 15.8913 16.8245 15.7938C19.1607 12.6788 19.1607 8.32126 16.8245 5.20626C16.7201 5.06702 16.6752 4.892 16.6998 4.7197C16.7245 4.5474 16.8165 4.39194 16.9557 4.28751C17.095 4.18308 17.27 4.13824 17.4423 4.16285C17.6146 4.18747 17.7701 4.27952 17.8745 4.41876C20.5607 7.99751 20.5607 13.0025 17.8745 16.5813C17.752 16.7563 17.5507 16.8438 17.3495 16.8438ZM12.2675 3.30926C11.2875 2.76676 10.0362 2.90676 8.75875 3.70301L6.20375 5.30426C6.02875 5.40926 5.8275 5.47051 5.62625 5.47051H4.375C2.2575 5.47051 1.09375 6.63426 1.09375 8.75176V12.2518C1.09375 14.3693 2.2575 15.533 4.375 15.533H5.62625C5.8275 15.533 6.02875 15.5943 6.20375 15.6993L8.75875 17.3005C9.52875 17.7818 10.2812 18.018 10.9812 18.018C11.4306 18.022 11.8735 17.9105 12.2675 17.6943C13.2387 17.1518 13.7812 16.023 13.7812 14.518V6.48551C13.7812 4.98051 13.2387 3.85176 12.2675 3.30926Z" fill="white"/>
</svg>
