<svg width="21" height="21" viewBox="0 0 21 21" fill="none" xmlns="http://www.w3.org/2000/svg">
<path d="M15.75 14.6563C15.6281 14.6563 15.5087 14.6223 15.405 14.5582C15.3013 14.4942 15.2175 14.4025 15.163 14.2935C15.1085 14.1845 15.0855 14.0624 15.0964 13.9411C15.1073 13.8197 15.1519 13.7038 15.225 13.6063C15.7659 12.8831 16.1085 12.0312 16.219 11.135C16.3295 10.2387 16.2041 9.32912 15.855 8.49625C15.7881 8.33609 15.7873 8.15594 15.8529 7.99522C15.9185 7.83451 16.0451 7.70634 16.205 7.63875C16.5375 7.49875 16.9225 7.65625 17.0625 7.98875C17.955 10.1063 17.6488 12.565 16.275 14.4025C16.1438 14.5688 15.9513 14.6563 15.75 14.6563Z" fill="white"/>
<path d="M17.3495 16.8438C17.2276 16.8438 17.1082 16.8098 17.0045 16.7458C16.9008 16.6817 16.817 16.59 16.7625 16.481C16.708 16.372 16.685 16.25 16.6959 16.1286C16.7068 16.0072 16.7514 15.8913 16.8245 15.7938C18.697 13.3 19.1083 9.95751 17.9008 7.07876C17.8338 6.9186 17.8331 6.73844 17.8987 6.57773C17.9643 6.41702 18.0909 6.28884 18.2507 6.22126C18.5832 6.08126 18.9682 6.23876 19.1082 6.57126C20.4995 9.87876 20.027 13.7113 17.8745 16.5813C17.752 16.7563 17.5507 16.8438 17.3495 16.8438ZM12.285 11.3383C12.8362 10.787 13.7812 11.1808 13.7812 11.9595V14.5233C13.7812 16.0283 13.2388 17.157 12.2675 17.6995C11.8735 17.9158 11.4306 18.0272 10.9813 18.0233C10.2813 18.0233 9.52875 17.787 8.75875 17.3058L8.19875 16.9558C7.72625 16.6583 7.6475 15.9933 8.04125 15.5995L12.285 11.3383ZM19.0488 1.95038C18.7863 1.68788 18.3575 1.68788 18.095 1.95038L13.7637 6.28163C13.7112 4.88163 13.1863 3.83163 12.2588 3.31538C11.2788 2.77288 10.0275 2.91288 8.75 3.70913L6.20375 5.30163C6.02875 5.40663 5.8275 5.46788 5.62625 5.46788H4.375C2.2575 5.46788 1.09375 6.63163 1.09375 8.74913V12.2491C1.09375 14.3666 2.2575 15.5304 4.375 15.5304H4.515L1.9425 18.1029C1.68 18.3654 1.68 18.7941 1.9425 19.0566C2.0825 19.1791 2.24875 19.2491 2.42375 19.2491C2.59875 19.2491 2.765 19.1791 2.89625 19.0479L19.0488 2.89538C19.32 2.63288 19.32 2.21288 19.0488 1.95038Z" fill="white"/>
</svg>
